<svg xmlns="http://www.w3.org/2000/svg" viewBox="0 0 35 32"><defs><filter id="a" filterUnits="userSpaceOnUse"><feOffset dy="1"/><feGaussianBlur result="blur" stdDeviation="2"/><feFlood flood-color="#000" flood-opacity=".8"/><feComposite in2="blur" operator="in"/><feComposite in="SourceGraphic"/></filter></defs><g style="filter:url(#a)"><path d="m26.8 27.8-3.2-3.1H10.9c-1.8 0-3.4-.6-4.6-1.9C5 21.5 4.4 20 4.4 18.2s.5-2.9 1.4-4.1 2.2-2 3.6-2.3c0-.2 0-.3.2-.5s0-.3.2-.5L4.9 6l1.7-1.7 21.9 21.9-1.7 1.7Zm-15.9-5.4h10.3l-9.5-9.6V14h-.6c-1.1 0-2.1.4-2.9 1.2S7 17 7 18.1s.4 2.1 1.2 2.9 1.8 1.2 2.9 1.2zm18 .8-1.7-1.7c.3-.3.6-.6.8-1s.3-.8.3-1.2q0-1.2-.9-2.1c-.9-.9-1.3-.9-2.1-.9h-1.8v-2.4c0-1.6-.6-3-1.7-4.2S19.2 8 17.6 8s-1.1 0-1.5.2-1 .3-1.4.6L13 7.1c.7-.5 1.4-.8 2.2-1.1s1.6-.4 2.5-.4c2.3 0 4.3.8 5.9 2.4s2.4 3.6 2.4 5.9c1.4.2 2.5.7 3.4 1.8s1.4 2.2 1.4 3.6-.1 1.5-.4 2.2-.7 1.2-1.2 1.7z" style="fill:#fff" data-name="Capa_1"/></g></svg>