<svg xmlns="http://www.w3.org/2000/svg" viewBox="0 19 508 97"><defs><style>.cls-2{fill:#fff}</style></defs><g id="Capa_1"><g id="Capa_1-2" data-name="Capa_1"><path class="cls-2" d="M2.9 35.2C14 18 43 15.2 53 36c3.4 7 2.8 16-5.9 23 23.2 16.2 7.3 46.4-19.3 43.8-10.5-1-20.9-4.1-27.8-16.9l12.3-9c3.7 6.2 10.2 9.6 15.8 9.6 17.7 0 18-18.3 1.9-19.2H18.8V53.2H30c4.6 0 8.4-3.4 8.4-8.1s-4.9-7.8-10.1-7.8-10.8.8-15.6 6.7zM113.7 32v67c-7.1 2.7-15.5 4.4-22.8 4.4-12.3 0-23.2-5.1-24.3-20.2V63c-.2-16.3 18.5-23.7 31.3-17.8V22.1l15.8 9.8ZM97.9 57c-5.1-2.8-14.8-1.7-15.6 5.1v22.5c.2 7 10.2 8.6 15.6 5.9V57.1Zm49 31.1 2.2-15.1 8.7-29.5h16.8L153.7 102h-14.8l-20.8-58.5h16.7l8.6 29.5 2.4 15.1zm39.9-68.4c5.6 0 9.5 4.1 9.5 9.4s-3.8 9.5-9.5 9.5-9.3-4.2-9.3-9.5 4.1-9.4 9.3-9.4m-7.6 23.7h15.7V102h-15.7zM210.4 83c6.9 6.6 16.8 8.7 18.9 4 1.5-3.4-.3-6.7-5.6-7.5-27.7-4.7-23.7-36.4.8-36.7 5.3-.1 12.7 1.2 18.6 6.1l-7.8 10.7c-3.5-3.4-14.1-6.6-14.8 1.1-.3 3.5 5.3 5.5 7.8 6 7.5 1.9 16.8 6.1 16.8 17.2s-10.2 19.2-21.1 19.2-15.5-2.6-21-9.9l7.5-10.2Zm70 18.2c-15.6 5.2-27.8-1.6-27.7-19.8V32.1L268.3 22v21.5h10.4v15.7h-10.4v22.1c0 6.7 4.5 9.9 12.1 8.5z"/><path class="cls-2" d="M315.9 65.8c0-13.7-15-12.9-21.2-6l-7.7-7.1c12.1-16.7 44.2-12.3 44.2 10.1v36.3c-6.9 2.6-14.9 4.3-22 4.3-32 0-31.6-39.3-2.7-39.3s6.7.3 9.5 1.8Zm-.5 11.3c-1.7-.7-4.4-1.1-7.1-1-12.2.3-11.4 15.1.6 15.1s4.4-.2 6.5-.8z"/><path style="fill:#04a3e1" d="M351.7 27.4H508v88.5H351.7z"/><path d="M384.5 47.2h7.1l17.8 49.3h-6.1l-5.7-15.8h-19c-1.8 5.1-3.8 10.6-5.6 15.8h-6.2zm11.1 27.7c-2.7-7.6-4.7-13.5-7.5-21.4-2.5 7.2-4.9 14-7.5 21.4zm25.2 21.6H415V47.2h18.8c11.1 0 16.6 7.9 16.6 15.8s-5.6 15.7-16.6 15.7h-13.1v17.7h.1ZM444.7 63c0-5-3.6-10.1-10.9-9.9h-13v19.8h13c7.3 0 10.9-4.9 10.9-9.9Zm19 33.5h-5.8V47.2h18.8c11.1 0 16.6 7.9 16.6 15.8s-5.6 15.7-16.6 15.7h-13.1v17.7h.1ZM487.5 63c0-5-3.6-10.1-10.9-9.9h-13v19.8h13c7.3 0 10.9-4.9 10.9-9.9Z" style="stroke:#fff;stroke-miterlimit:10;fill:#fff"/></g></g></svg>